<?xml version="1.0" encoding="UTF-8"?>
<svg xmlns="http://www.w3.org/2000/svg" version="1.1" viewBox="0 0 191 53">
  <defs>
    <style>
      .cls-1 {
        fill: #ed364c;
      }

      .cls-2 {
        fill: #fff;
      }

      .cls-3 {
        fill: #fefefe;
      }
    </style>
  </defs>
  <!-- Generator: Adobe Illustrator 28.7.1, SVG Export Plug-In . SVG Version: 1.2.0 Build 142)  -->
  <g>
    <g id="_레이어_1">
      <g>
        <path class="cls-2" d="M60.9,36.7c6.9-4.8,7.3-13.3.9-18.8-.3-.3-.6-.5-.9-.7,0,0,0,.2,0,.2h-.1s-.5-.5-1-1c0,0,0,0,0,0,0,0,0,0,0,0,0,0-.5-.3-1.9-.8-2.7-1-5.2-1.3-8-1h0c-8.8.9-14.8,11.7-10.7,18.3,4.1,6.6,14,8.2,20.6,4.6,2.7,1.6,5.8,1.9,8.9,1.3-2.5.3-5.2-.3-7.8-2.1ZM59.7,35.7c-.2,0-1-.9-1.1-1.1-3.4-4.2-3.5-10.4-.4-14.8.9-1.2,1.3-1.9,1.6-2.2-.6-.3-1.1-.5-1.2-.5,0,.3-.8.6-1,.9-6.3,5.6-5.8,13.9,1,18.8-5.8,4.5-14,1.9-16.9-4.7-4.3-9.7,5-20.7,15.2-16,1.3.6,2.3,1.1,3,1.4.2-.3.1-.2,0,0,3.5,1.6,1.5.8,0,.1-.1.3-.3.6-.2.6.3,0,1.1,1.1,1.3,1.4,3.6,5,3.1,11.7-1.2,16.1Z"/>
        <path class="cls-2" d="M59.8,16.4c0,0,0,0,0,0h0Z"/>
        <path class="cls-2" d="M61.4,15.6c-.3.2-1.1.6-1.4.7.3.2.6.5,1,.8,0,0,0,0,0-.2,0-.2,1.3-.8,1.5-.9,6.2-3,13.2.1,15.6,6.4,2.4,6.5-.9,12.9-6,15.3,5.9-2.4,10.6-7.7,9.6-13-1.7-9-12.5-12-20.3-9.2Z"/>
        <path class="cls-2" d="M24.1,27.2h2.9c.4,0-2.4,1.5,2.4-.8,4.8-2.3,4.7-9-.1-11.2-.3-.2-1.9-.7-2.2-.7h-13.4c-.1,0-.3.3-.3.3v24.3h2.8v-11.8h4.1c.4,0,1.4.8,1.7,1.1l9.8,10.7h3l-10.6-11.8h-.1ZM16.2,26.7v-11.6h9.1c.3,0,1.7.6,2,.8,3.7,2,3.8,7.9.1,10-3.7,2.1-1.8.8-2.1.8h-9.1Z"/>
        <path class="cls-2" d="M123,14.9h16c.3,0,.3-.5,0-.5h-18.9v24.7h18.9c.3,0,.3-.5,0-.5h-16.3v-10.9c0-.4.2-.7.2-.8,0,0-.2-.3-.2-.5,0-3.3-.4-7.8,0-10.9,0-.2,0-.6.3-.6Z"/>
        <path class="cls-2" d="M112.7,17.9c.3.3,1.3,1.6,1.4,1.6h2.5c-6.4-7.9-22.1-6-25.3,4-2.4,7.1,3.6,15.4,11,15.6.5,0,1-.2,1.1-.2h0s0,0,0,0c-9.3-1.6-12.9-13-6.9-20,4.1-4.8,11.3-5.2,16-1Z"/>
        <polygon class="cls-2" points="144.2 14.4 141.6 14.4 141.6 39.1 159.7 39.1 159.7 38.5 144.2 38.5 144.2 14.4"/>
        <path class="cls-2" d="M180.2,38.5h-15.2V14.4h-2.6v24.6h18.1c0,0-.2-.5-.3-.5Z"/>
        <path class="cls-2" d="M84.9,14.8v24.4h2.8V14.8c0-.4-2.8-.4-2.8,0Z"/>
        <path class="cls-2" d="M114,34.6h.1c0,0-.2,0-.1,0Z"/>
        <path class="cls-2" d="M102.4,39.1h-.1s0,0,0,0c0,0,0,0,0,0,5,1.2,10.9-.7,14.3-4.5h-2.4c0,.1-.4.6-2,1.9-2.9,2.4-5,2.4-8.5,2.4,0,0,0,0,0,0-.1.3-.6.3-1.2.2Z"/>
        <path class="cls-2" d="M103.4,38.9c-.2,0-.7.2-1.1.2,0,0,0,0,0,0h.1c.6.1,1.1.1,1.2-.2,0,0,0,0,0,0,0,0,0,0,0,0h0Z"/>
        <path class="cls-2" d="M122.9,26.9h13.1l.3-.3-13.6-.2c.5,0,.6.2.2.5Z"/>
        <path class="cls-2" d="M122.7,26.4c0,.2.2.5.2.5.4-.3.3-.5-.2-.5Z"/>
        <path class="cls-3" d="M58.5,17.1s0,0,0,0c0,0,0,0,0-.1h0Z"/>
        <path class="cls-3" d="M59.9,17.5s0,0,0,.1c1.6.7,3.6,1.5,0-.1Z"/>
        <path class="cls-3" d="M60,16.3c-2.1-1.8-1.1-.8-.2,0,0,0,0,0,0,0,0,0,.1,0,.2,0Z"/>
        <path class="cls-3" d="M72.1,37.8c-1.1.4-2.2.8-3.4,1,1.2-.1,2.3-.5,3.4-1Z"/>
        <path class="cls-3" d="M60.8,17.4h.1c0,0,0-.1,0-.2-.4-.3-.7-.6-1-.8,0,0-.1,0-.2,0,0,0,0,0,0,0,.5.5,1,1,1,1Z"/>
        <path class="cls-1" d="M59.8,17.5s0,0,0,0c.1-.2.2-.3,0,0Z"/>
        <path class="cls-1" d="M60.9,19.6c-.2-.3-1-1.4-1.3-1.4s0-.3.2-.6c0,0,0,0,0,0-.2.3-.7,1-1.6,2.2-3.1,4.4-3,10.6.4,14.8.1.2.9,1.1,1.1,1.1,4.3-4.4,4.8-11.1,1.2-16.1Z"/>
        <path class="cls-1" d="M59.9,17.5s0,0,0,0c0,0,0,0,0,0,0,0,0,0,0,0,0,0,0,0,0-.1Z"/>
      </g>
    </g>
  </g>
</svg>